:SAMPLES-PER-SECOND 30
:FULLY-SPECIFIED
:DEGREES
393
root  -66.1681 30.0862 8.17536 13.7836 7.80669 -6.9025
RightUpLeg  -9.69827 2.88245 -10.2794
RightLeg  54.6271 7.63377 9.24141
RightFoot  16.0911 -0.59017 4.55075
RightToes  -51.5037 -0.316265 -0.370476
Spine  9.98073 2.72235 4.38942
Spine1  19.5301 8.86458 3.01514
HEad  27.0619 -5.61232 0.547663
LeftShoulder1  0 -2.42657e-020 -4.95415e-022
LeftArm  -8.21821 4.44191 -85.2311
LeftForeArm  44.6463 -36.1787 -7.38976
LeftHand  0.32651 -11.1689 -3.71062
RightShoulder  0 2.42657e-020 1.07489e-018
RightArm  -66.8577 14.0069 66.335
RightForeArm  23.6797 21.9269 4.06564
RightHand  1.25473 24.4659 6.15411
LeftUpLeg  -49.8729 9.93145 -18.6633
LeftLeg  43.7155 2.81252 2.35449
LeftFoot  -14.8651 -0.100791 -0.772609
LeftToes  25.7829 2.37847e-007 4.89147e-008
394
root  -65.4902 30.4046 10.8445 12.5898 10.988 -6.89099
RightUpLeg  -11.3135 5.78496 -9.54512
RightLeg  59.195 11.6457 16.3116
RightFoot  11.5816 -0.464792 4.95795
RightToes  -53.6024 -0.335206 -0.378404
Spine  9.35989 1.05235 4.44752
Spine1  18.4711 4.47926 4.03383
HEad  25.9024 -2.419 -0.722103
LeftShoulder1  0 -2.42657e-020 -4.95415e-022
LeftArm  -7.98683 8.17752 -83.3954
LeftForeArm  46.5457 -36.8927 -7.58405
LeftHand  0.296189 -11.8066 -3.23579
RightShoulder  0 2.42657e-020 1.07489e-018
RightArm  -60.7571 8.06287 65.8989
RightForeArm  16.8388 30.3216 5.9157
RightHand  2.34618 25.2063 10.8384
LeftUpLeg  -43.8058 9.15286 -17.7684
LeftLeg  44.1744 2.10872 1.79342
LeftFoot  -17.1578 -0.118606 -0.786202
LeftToes  28.8627 2.37847e-007 4.89147e-008
395
root  -64.6013 30.8361 13.4652 11.3826 14.6401 -6.73071
RightUpLeg  -13.9527 5.61555 -9.24149
RightLeg  59.7966 9.35651 13.5348
RightFoot  8.77582 -0.196006 2.93127
RightToes  -56.9118 -0.365626 -0.389481
Spine  8.50179 -0.680623 4.26426
Spine1  16.8463 -0.183894 5.1929
HEad  26.2404 1.18894 -2.06597
LeftShoulder1  0 -2.42657e-020 -4.95415e-022
LeftArm  -7.51899 11.3694 -82.2849
LeftForeArm  48.3846 -36.4835 -7.46723
LeftHand  0.34656 -12.2552 -3.59925
RightShoulder  0 2.42657e-020 1.07489e-018
RightArm  -58.6892 1.65153 65.22
RightForeArm  6.22613 38.2631 7.98777
RightHand  2.14782 24.8028 10.1178
LeftUpLeg  -35.6698 5.51153 -16.2753
LeftLeg  41.721 2.81905 2.19797
LeftFoot  -19.593 -0.217906 -1.26196
LeftToes  28.0766 2.37847e-007 4.89147e-008
396
root  -63.7508 31.3115 15.9716 10.7758 16.6626 -7.17883
RightUpLeg  -18.8753 6.22459 -8.83317
RightLeg  57.8399 5.00629 6.81478
RightFoot  4.68353 -0.0178869 0.814818
RightToes  -48.4865 -0.289573 -0.357875
Spine  7.72733 -1.96509 4.10053
Spine1  15.3134 -3.46795 5.86215
HEad  26.5494 6.6552 -3.87136
LeftShoulder1  0 -2.42657e-020 -4.95415e-022
LeftArm  -9.32597 15.4466 -81.7727
LeftForeArm  48.2022 -38.0042 -7.89613
LeftHand  0.468136 -12.4089 -4.67669
RightShoulder  0 2.42657e-020 1.07489e-018
RightArm  -59.0954 -2.17651 64.4001
RightForeArm  6.50455 44.3432 9.92486
RightHand  2.48987 24.7695 11.6768
LeftUpLeg  -28.1866 3.21692 -14.7849
LeftLeg  37.725 3.39958 2.28928
LeftFoot  -20.7576 -0.280375 -1.53075
LeftToes  27.2556 2.37847e-007 4.89147e-008
397
root  -62.9591 31.7045 18.4328 10.2883 17.0882 -8.12012
RightUpLeg  -24.9001 7.96499 -8.34712
RightLeg  54.0761 0.495542 0.538428
RightFoot  0.928082 0.00269484 0.0447881
RightToes  -42.6536 -0.24002 -0.329616
Spine  7.43791 -2.73703 4.21775
Spine1  14.7619 -5.216 6.10486
HEad  25.9328 12.8703 -6.16868
LeftShoulder1  0 -2.42657e-020 -4.95415e-022
LeftArm  -11.4635 19.1517 -81.6688
LeftForeArm  47.1142 -40.2345 -8.56132
LeftHand  0.380728 -12.0773 -3.97007
RightShoulder  0 2.42657e-020 1.07489e-018
RightArm  -56.9743 -4.29205 62.9395
RightForeArm  5.22089 51.249 12.7039
RightHand  2.69108 24.6128 12.6639
LeftUpLeg  -21.3628 3.09283 -13.0794
LeftLeg  33.6681 3.05402 1.75661
LeftFoot  -20.999 -0.251157 -1.35513
LeftToes  24.6916 2.37847e-007 4.89147e-008
398
root  -62.1937 31.9091 20.8231 9.91647 16.6346 -8.85138
RightUpLeg  -30.7255 10.363 -8.70274
RightLeg  47.7424 -3.05828 -2.99429
RightFoot  -3.25548 -0.00414848 0.231613
RightToes  -37.1801 -0.196357 -0.298645
Spine  7.33209 -3.07844 4.29187
Spine1  14.6144 -5.86452 5.86973
HEad  24.6486 18.8228 -8.94507
LeftShoulder1  0 -2.42657e-020 -4.95415e-022
LeftArm  -13.381 21.5561 -81.7394
LeftForeArm  46.8922 -41.5231 -8.96588
LeftHand  0.314291 -11.6576 -3.44997
RightShoulder  0 2.42657e-020 1.07489e-018
RightArm  -53.7993 -5.77242 62.1123
RightForeArm  8.847 60.9206 18.5424
RightHand  2.40234 24.2298 11.5309
LeftUpLeg  -15.8661 4.27119 -11.8726
LeftLeg  31.4183 2.27599 1.19236
LeftFoot  -20.1674 -0.177731 -0.999406
LeftToes  21.1247 2.37847e-007 4.89147e-008
399
root  -61.393 31.9461 23.0583 10.0656 17.2323 -8.73529
RightUpLeg  -35.0265 10.6121 -10.2366
RightLeg  37.6302 -3.63075 -2.45883
RightFoot  -3.92128 -0.00410136 0.257788
RightToes  -37.4952 -0.19879 -0.30054
Spine  7.13335 -3.792 4.18781
Spine1  14.2542 -7.18137 5.16445
HEad  23.0449 25.1539 -12.1838
LeftShoulder1  0 -2.42657e-020 -4.95415e-022
LeftArm  -14.6232 22.8225 -81.3182
LeftForeArm  45.9052 -41.15 -8.84888
LeftHand  0.363773 -11.4308 -4.00582
RightShoulder  0 2.42657e-020 1.07489e-018
RightArm  -51.8135 -5.75234 62.9446
RightForeArm  22.3954 70.6547 30.343
RightHand  2.69214 25.9131 12.036
LeftUpLeg  -14.0167 7.53684 -11.2774
LeftLeg  34.9565 0.32281 0.191601
LeftFoot  -17.1392 -0.0329586 -0.218723
LeftToes  14.3072 2.37847e-007 4.89147e-008
400
root  -60.6494 31.8067 25.2516 9.92236 19.9813 -7.78809
RightUpLeg  -36.9087 10.4232 -13.3947
RightLeg  26.1427 -2.67321 -1.1095
RightFoot  -4.04861 -0.0079577 0.152435
RightToes  -41.0362 -0.226814 -0.320901
Spine  7.28847 -4.95891 3.96431
Spine1  14.5706 -9.33275 3.97091
HEad  20.3647 30.3188 -15.7693
LeftShoulder1  0 -2.42657e-020 -4.95415e-022
LeftArm  -15.4143 21.6402 -80.241
LeftForeArm  46.352 -38.0482 -7.91209
LeftHand  0.341506 -11.2359 -3.84301
RightShoulder  0 2.42657e-020 1.07489e-018
RightArm  -47.304 -3.88362 63.8383
RightForeArm  54.8409 78.3494 59.6544
RightHand  2.34794 26.7332 10.2305
LeftUpLeg  -16.1307 11.6002 -9.52227
LeftLeg  47.0813 -5.82214 -5.48609
LeftFoot  -9.2391 0.101212 1.25254
LeftToes  1.07913 2.37847e-007 4.89147e-008
401
root  -60.0001 31.3214 27.6036 8.60294 24.0484 -6.76208
RightUpLeg  -37.4233 12.172 -17.927
RightLeg  20.2003 -1.40652 -0.41838
RightFoot  -4.12231 -0.0108226 0.076846
RightToes  -39.1658 -0.211854 -0.310362
Spine  8.10677 -5.69457 3.50793
Spine1  16.1319 -10.5956 2.28867
HEad  16.8526 32.2495 -17.7752
LeftShoulder1  0 -2.42657e-020 -4.95415e-022
LeftArm  -16.5504 17.3412 -78.3093
LeftForeArm  48.7564 -33.1688 -6.58947
LeftHand  0.431502 -10.7602 -4.95249
RightShoulder  0 2.42657e-020 1.07489e-018
RightArm  -41.8895 -2.89055 65.0489
RightForeArm  112.737 78.5548 118.108
RightHand  2.12295 25.6917 9.66268
LeftUpLeg  -19.622 13.2461 -5.20037
LeftLeg  63.724 -9.85427 -16.5494
LeftFoot  1.824 0.00845723 -0.531282
LeftToes  -26.697 2.37847e-007 4.89147e-008
402
root  -59.522 30.2935 29.9893 7.13614 29.7413 -6.52222
RightUpLeg  -37.4016 13.7298 -21.6038
RightLeg  21.7715 -4.29042 -1.40143
RightFoot  -4.53964 0.00015842 0.381604
RightToes  -45.3974 -0.262971 -0.343537
Spine  8.65033 -5.89673 2.99405
Spine1  17.0355 -10.7756 0.681913
HEad  16.3706 32.3051 -15.4605
LeftShoulder1  0 -2.42657e-020 -4.95415e-022
LeftArm  -19.717 12.5944 -76.0982
LeftForeArm  49.4034 -28.89 -5.5522
LeftHand  0.543399 -10.1142 -6.50916
RightShoulder  0 2.42657e-020 1.07489e-018
RightArm  -35.4649 -4.16607 66.381
RightForeArm  146.127 70.5928 149.385
RightHand  2.11908 26.2568 9.44007
LeftUpLeg  -25.7142 11.4487 0.776773
LeftLeg  79.0066 -6.35552 -22.9378
LeftFoot  -0.442721 0.00124695 0.322741
LeftToes  -41.3358 2.37847e-007 4.89147e-008
403
root  -59.125 28.8501 32.3979 3.83896 36.4003 -7.31445
RightUpLeg  -38.0972 4.95806 -18.1939
RightLeg  38.3178 2.31854 1.58105
RightFoot  0.341533 0.000405079 0.241142
RightToes  -65.3886 -0.445985 -0.409689
Spine  9.92275 -5.68906 2.56538
Spine1  19.0881 -10.144 -0.838174
HEad  16.2127 30.5892 -13.3738
LeftShoulder1  0 -2.42657e-020 -4.95415e-022
LeftArm  -23.4837 7.55983 -74.0533
LeftForeArm  48.6504 -27.0681 -5.13942
LeftHand  0.333957 -8.62497 -4.80018
RightShoulder  0 2.42657e-020 1.07489e-018
RightArm  -26.1524 -2.90362 67.2936
RightForeArm  163.518 63.4313 158.879
RightHand  0.489051 27.8221 2.34487
LeftUpLeg  -34.1059 8.56174 7.75599
LeftLeg  90.787 -0.923254 -17.8038
LeftFoot  -7.16752 0.146226 2.33442
LeftToes  -35.7984 2.37847e-007 4.89147e-008
404
root  -58.4927 27.546 34.4942 0.657257 43.4914 -7.97421
RightUpLeg  -38.1697 -7.08301 -16.1714
RightLeg  54.9258 4.43971 5.44599
RightFoot  -6.06442 -0.0303349 -0.195134
RightToes  -58.1796 -0.377441 -0.393256
Spine  12.1949 -5.39271 2.0521
Spine1  22.6553 -9.55008 -1.91
HEad  14.6281 26.6468 -11.9562
LeftShoulder1  0 -2.42657e-020 -4.95415e-022
LeftArm  -26.31 0.470668 -72.9614
LeftForeArm  45.6159 -26.3188 -4.97814
LeftHand  0.0534002 -6.90699 -1.25606
RightShoulder  0 2.42657e-020 1.07489e-018
RightArm  -16.5984 3.13791 68.4449
RightForeArm  176.496 62.5668 159.68
RightHand  -2.30498 28.4535 -8.70536
LeftUpLeg  -45.1172 6.31868 11.7737
LeftLeg  97.0577 0.480585 -7.97769
LeftFoot  -13.87 0.211927 1.7422
LeftToes  -19.0792 2.37847e-007 4.89147e-008
405
root  -57.5497 26.4107 36.5757 -1.13638 50.6438 -8.65094
RightUpLeg  -33.9354 -13.3426 -16.8635
RightLeg  63.5259 3.2913 5.53549
RightFoot  -15.9127 -0.180179 -0.911606
RightToes  -58.8814 -0.384017 -0.395233
Spine  13.9838 -5.10073 1.60593
Spine1  25.1812 -9.37127 -1.09251
HEad  13.9568 21.0068 -10.5529
LeftShoulder1  0 -2.42657e-020 -4.95415e-022
LeftArm  -25.6535 -7.12224 -73.009
LeftForeArm  43.7365 -24.7282 -4.63518
LeftHand  -0.0304651 -5.32374 0.2857
RightShoulder  0 2.42657e-020 1.07489e-018
RightArm  -8.13104 9.79616 71.9163
RightForeArm  176.245 68.2235 153.282
RightHand  -5.68257 29.2214 -21.1932
LeftUpLeg  -57.0365 6.35722 11.8743
LeftLeg  96.9076 -0.0829982 1.59392
LeftFoot  -18.305 -0.135452 -0.840716
LeftToes  -3.6302 2.37847e-007 4.89147e-008
406
root  -56.4025 25.5952 38.3837 -1.86728 54.8088 -9.44583
RightUpLeg  -30.291 -15.1827 -17.1334
RightLeg  68.6117 1.62387 3.31323
RightFoot  -22.556 -0.138076 -0.314844
RightToes  -61.7893 -0.411504 -0.402563
Spine  14.9529 -4.04868 1.39945
Spine1  26.152 -7.76005 1.05729
HEad  14.1258 15.9735 -9.39638
LeftShoulder1  0 -2.42657e-020 -4.95415e-022
LeftArm  -25.6284 -12.8888 -75.4312
LeftForeArm  42.7392 -24.1847 -4.52056
LeftHand  0.0214819 -6.59627 -0.743505
RightShoulder  0 2.42657e-020 1.07489e-018
RightArm  -3.98349 16.076 74.8241
RightForeArm  151.787 78.6155 117.631
RightHand  -8.14507 29.5412 -29.8591
LeftUpLeg  -67.0903 9.5357 7.75703
LeftLeg  91.1675 0.253015 5.5871
LeftFoot  -19.5047 -0.365595 -2.12689
LeftToes  0.0308219 2.37847e-007 4.89147e-008
407
root  -55.031 25.1427 39.9867 -0.239777 56.865 -9.02118
RightUpLeg  -26.6886 -15.6689 -17.4192
RightLeg  69.6558 0.866396 1.77742
RightFoot  -26.9065 -0.0115343 0.32934
RightToes  -58.702 -0.382334 -0.394736
Spine  14.9832 -2.59652 1.11761
Spine1  25.7931 -4.94612 2.63627
HEad  13.9857 11.4241 -8.85825
LeftShoulder1  0 -2.42657e-020 -4.95415e-022
LeftArm  -22.8185 -15.8052 -78.0095
LeftForeArm  42.4211 -25.3582 -4.77281
LeftHand  0.0451356 -6.31035 -1.19004
RightShoulder  0 2.42657e-020 1.07489e-018
RightArm  -1.51471 23.6683 76.395
RightForeArm  72.1124 70.1317 29.3339
RightHand  -8.18077 25.9963 -34.0634
LeftUpLeg  -74.8267 13.9549 -0.54099
LeftLeg  81.8579 2.21236 10.4156
LeftFoot  -19.6524 -0.615375 -3.55186
LeftToes  6.53881 2.37847e-007 4.89147e-008
